<?xml version="1.0" encoding="utf-8"?>
<!-- Generator: Adobe Illustrator 23.0.1, SVG Export Plug-In . SVG Version: 6.00 Build 0)  -->
<svg version="1.1" xmlns="http://www.w3.org/2000/svg" xmlns:xlink="http://www.w3.org/1999/xlink" x="0px" y="0px"
	 viewBox="0 0 386 241.4" style="enable-background:new 0 0 386 241.4;" xml:space="preserve">
<style type="text/css">
	.st0{display:none;}
	.st1{display:inline;}
</style>
<g id="레이어_1" class="st0">
	<path class="st1" d="M386.6-0.3c-128.7,0-258.5,0-387.1,0c0,1.9,0.1,3.9,0.1,5.9c0,66.9,0,133.8,0,200.7c0,3.8-0.1,7.7,0,11.5
		c0,1.1-0.7,2.9,1.5,3c0.3-0.3,0.6-0.6,0.9-0.9c3,1.2,5.9,3.4,9.3,2.5c4.2-1.2,8.1,0,11.3,2.1c4.4,2.9,8.3,2.4,12.7,0.5
		c4.8-2,9.7-4.9,15.1-1.6c1,0.6,2.2-0.2,3.3-0.4c6.2-1,12.9-0.9,17.5,3.2c4.5,4,9,5.2,14.5,4.7c2-0.2,4,0,5.8,0.9
		c1.9,0.9,3.8,1.1,5.7,0.1c2.6-1.4,5.1-1.1,7.7,0c3.1,1.3,6.2,0.9,9.3,0.4c10-1.5,20-2.6,30.1-1.7c2.6,0.2,5.7,2.1,7.7,1.2
		c5.9-2.7,11.9-1.6,17.8-2.2c4.4-0.5,9.2-2.1,13.5-2.3c4.4-0.2,8.5-3,12.3-2.1c6,1.4,11.5-0.5,17.2-0.6c7.2-0.1,14.9-1.4,21.3,4
		c3.4,2.8,7.5,3.7,11.4,0.3c1.6-1.4,3.5-1.6,5.6-1.2c7.1,1.4,13.7,3.9,20.2,7c2,0.9,3.8,2.5,6,1.4c4.3-2.2,8.8-1.3,13.2-1.4
		c1.5,0,3.1,0.1,4.4-0.4c5.3-2.4,10.6-1.2,16.1-1.1c6.7,0,14.6,2,19.1-5.8c1.1-1.9,3-1.6,4.9-1.5c2.5,0.1,5.5,0.1,6.9-2.1
		c3.2-5.3,6.8-2.9,10.3-0.9c2.4,1.4,4.4,3.7,7.4,3.9c5.9,0.5,10.2,3.3,13.5,8.2c1.7,2.6,3.9,5.1,7.5,5c0.1,0.3,0.2,0.6,0.4,0.8
		c1.9,0.6,3.7,1.2,5.4-0.5c0-0.5,0.1-1,0.1-1.5c0-78.4,0-156.8,0-235.1C386.5,2.3,386.6,1.2,386.6-0.3z"/>
</g>
<g id="레이어_2">
	<rect width="386" height="241.4"/>
</g>
</svg>
